<svg width="316" height="316" viewBox="0 0 316 316" fill="none" xmlns="http://www.w3.org/2000/svg">
<rect x="13" y="13" width="290" height="290" rx="60" fill="white"/>
<rect x="13" y="13" width="290" height="290" rx="60" stroke="#1C6758" stroke-opacity="0.1" stroke-width="3"/>
<path d="M158 33C227.036 33 283 88.9644 283 158C283 227.036 227.036 283 158 283C155.511 283 153.038 282.927 150.585 282.783V249.864C150.336 249.844 150.088 249.825 149.84 249.804C149.801 249.8 149.762 249.797 149.724 249.794C102.702 245.609 65.8389 206.11 65.8389 158C65.8389 137.85 72.3066 119.212 83.2773 104.045L94.5459 114.192C86.1246 126.516 81.1992 141.418 81.1992 157.471C81.1993 175.331 87.2965 191.768 97.5225 204.812L159.148 148.996L218.874 204.301C228.86 191.339 234.801 175.099 234.801 157.471C234.801 138.909 228.216 121.885 217.255 108.608L228.426 98.5508C241.986 114.599 250.161 135.345 250.161 158C250.161 200.465 221.44 236.22 182.364 246.904V230.323C191.846 227.154 200.503 222.186 207.932 215.823L166.512 177.47V221.56H166.475V266.784C166.851 266.755 167.228 266.725 167.604 266.692C167.647 266.689 167.691 266.685 167.734 266.682C168.106 266.649 168.478 266.614 168.849 266.577C168.86 266.576 168.871 266.574 168.883 266.573C170.024 266.46 171.161 266.33 172.292 266.182C172.338 266.176 172.384 266.17 172.43 266.164C172.777 266.118 173.125 266.07 173.472 266.021C173.52 266.014 173.569 266.007 173.618 266C173.969 265.95 174.319 265.898 174.669 265.845C174.699 265.84 174.728 265.835 174.758 265.83C175.105 265.776 175.453 265.721 175.8 265.664C175.823 265.66 175.846 265.657 175.869 265.653C176.23 265.594 176.59 265.533 176.949 265.47C176.98 265.464 177.011 265.459 177.042 265.453C177.403 265.39 177.763 265.325 178.122 265.258C178.14 265.255 178.157 265.25 178.175 265.247C178.92 265.108 179.663 264.962 180.402 264.808C180.412 264.806 180.423 264.803 180.433 264.801C192.869 262.202 204.527 257.484 215.014 251.045C215.086 251.001 215.158 250.956 215.229 250.912C216.763 249.966 218.27 248.983 219.752 247.964C219.781 247.944 219.81 247.924 219.839 247.904C220.114 247.715 220.389 247.523 220.662 247.331C220.701 247.304 220.741 247.276 220.78 247.248C221.058 247.052 221.335 246.855 221.61 246.657C221.643 246.634 221.675 246.61 221.707 246.587C221.99 246.383 222.273 246.178 222.555 245.972C222.584 245.95 222.613 245.927 222.643 245.905C224.101 244.831 225.532 243.722 226.934 242.578C226.958 242.559 226.982 242.539 227.006 242.52C233.404 237.29 239.197 231.348 244.265 224.814C244.284 224.789 244.305 224.764 244.324 224.738C244.766 224.168 245.201 223.594 245.631 223.015C245.672 222.959 245.714 222.903 245.755 222.848C246.815 221.415 247.841 219.955 248.832 218.47C248.882 218.395 248.933 218.32 248.982 218.245C249.155 217.985 249.326 217.724 249.496 217.463C249.525 217.418 249.555 217.373 249.584 217.328C254.9 209.138 259.149 200.19 262.13 190.682C262.144 190.637 262.158 190.593 262.172 190.549C262.96 188.025 263.658 185.462 264.264 182.863C264.275 182.814 264.287 182.766 264.298 182.717C264.639 181.244 264.951 179.759 265.231 178.264C265.24 178.215 265.25 178.167 265.259 178.119C265.324 177.768 265.388 177.415 265.45 177.062C265.454 177.038 265.459 177.014 265.463 176.989C265.525 176.633 265.587 176.277 265.646 175.92C265.655 175.863 265.664 175.805 265.673 175.748C265.73 175.4 265.786 175.051 265.84 174.702C265.841 174.695 265.842 174.687 265.843 174.68C265.894 174.344 265.944 174.007 265.992 173.67C266.004 173.588 266.016 173.504 266.027 173.422C266.075 173.088 266.122 172.753 266.166 172.418C266.175 172.352 266.183 172.285 266.191 172.219C266.282 171.522 266.366 170.824 266.443 170.123C266.45 170.065 266.457 170.006 266.463 169.948C266.502 169.587 266.54 169.225 266.576 168.862C266.581 168.817 266.584 168.772 266.589 168.727C266.623 168.375 266.657 168.022 266.688 167.669C266.691 167.629 266.694 167.59 266.697 167.55C266.764 166.779 266.823 166.006 266.874 165.23C266.874 165.225 266.875 165.219 266.875 165.213C266.898 164.854 266.921 164.495 266.94 164.136C266.944 164.064 266.948 163.991 266.952 163.919C266.99 163.212 267.021 162.504 267.045 161.794C267.048 161.717 267.049 161.64 267.052 161.562C267.062 161.231 267.072 160.898 267.08 160.565C267.082 160.478 267.083 160.391 267.085 160.304C267.101 159.538 267.11 158.77 267.11 158C267.11 157.765 267.11 157.53 267.108 157.295C266.729 97.3597 218.025 48.8897 158 48.8896C97.7401 48.8896 48.8896 97.7401 48.8896 158C48.8896 158.789 48.8984 159.576 48.915 160.361C48.9161 160.413 48.9178 160.466 48.9189 160.518C48.9269 160.871 48.9369 161.224 48.9482 161.576C48.9505 161.647 48.9527 161.717 48.9551 161.788C48.9804 162.529 49.0127 163.269 49.0527 164.007C49.0548 164.044 49.0565 164.082 49.0586 164.119C49.0783 164.476 49.0999 164.832 49.123 165.188C49.127 165.248 49.1307 165.309 49.1348 165.37C49.1833 166.098 49.239 166.824 49.3018 167.548C49.3072 167.611 49.3128 167.674 49.3184 167.736C49.3484 168.076 49.38 168.415 49.4131 168.753C49.4197 168.821 49.4268 168.889 49.4336 168.957C49.4677 169.299 49.5028 169.641 49.54 169.981C49.5471 170.046 49.5543 170.111 49.5615 170.176C49.6855 171.292 49.827 172.404 49.9844 173.51C49.9926 173.568 50.0004 173.626 50.0088 173.685C50.0577 174.024 50.1091 174.364 50.1611 174.702C50.1703 174.762 50.1792 174.822 50.1885 174.882C50.6019 177.544 51.1116 180.174 51.7139 182.769C51.7258 182.82 51.738 182.872 51.75 182.923C54.7563 195.789 60.0404 207.78 67.1523 218.447C67.1906 218.505 67.2292 218.562 67.2676 218.619C67.4433 218.882 67.6199 219.143 67.7979 219.404C67.8422 219.469 67.8871 219.535 67.9316 219.6C69.1774 221.418 70.4764 223.196 71.8271 224.933C71.8504 224.962 71.8742 224.993 71.8975 225.022C72.1063 225.29 72.3161 225.557 72.5273 225.823C72.5578 225.862 72.5886 225.9 72.6191 225.938C76.1467 230.366 80.0119 234.512 84.1748 238.34C84.1852 238.349 84.1957 238.36 84.2061 238.369C86.1343 240.141 88.1265 241.843 90.1787 243.474C90.2162 243.503 90.2535 243.534 90.291 243.563C91.894 244.834 93.5338 246.06 95.208 247.24C95.2593 247.276 95.3109 247.313 95.3623 247.349C96.0459 247.829 96.7356 248.301 97.4307 248.766C97.4435 248.774 97.4559 248.783 97.4688 248.792C108.603 256.23 121.182 261.675 134.695 264.615V280.831C76.7971 269.913 33 219.071 33 158C33 88.9644 88.9644 33 158 33ZM108.565 216.248C120.149 226.001 134.657 232.39 150.585 233.916V178.188L108.565 216.248ZM158 65.8389C180.514 65.8389 201.142 73.9138 217.148 87.3232L205.909 97.4424C192.775 86.946 176.121 80.6699 158 80.6699C137.359 80.6699 118.621 88.8131 104.82 102.062L93.6611 92.0137C110.269 75.8176 132.97 65.8389 158 65.8389Z" fill="#1C6758"/>
</svg>
