<svg width="250" height="250" viewBox="0 0 250 250" fill="none" xmlns="http://www.w3.org/2000/svg">
<path fill-rule="evenodd" clip-rule="evenodd" d="M0 125C0 55.9644 55.9644 0 125 0C194.036 0 250 55.9644 250 125C250 127.489 249.926 129.962 249.783 132.415H216.865C216.845 132.664 216.825 132.912 216.804 133.16C216.8 133.199 216.797 133.237 216.794 133.276C212.609 180.298 173.11 217.161 125 217.161C104.85 217.161 86.2119 210.694 71.0449 199.723L81.1923 188.454C93.5158 196.875 108.418 201.801 124.47 201.801C142.331 201.801 158.767 195.704 171.812 185.478L115.996 123.852L171.3 64.1257C158.338 54.1394 142.098 48.1992 124.47 48.1992C105.909 48.1992 88.8857 54.7839 75.6086 65.7447L65.5507 54.5742C81.5987 41.0137 102.345 32.839 125 32.839C167.465 32.839 203.22 61.5597 213.904 100.636H197.323C194.154 91.1543 189.186 82.4967 182.824 75.0681L144.47 116.489H188.559V116.525H233.784C233.755 116.149 233.725 115.772 233.692 115.396C233.688 115.353 233.685 115.309 233.681 115.266C233.649 114.894 233.614 114.523 233.577 114.152C233.576 114.14 233.574 114.129 233.573 114.117C233.46 112.975 233.33 111.839 233.182 110.708C233.176 110.662 233.17 110.616 233.164 110.57C233.118 110.222 233.07 109.875 233.021 109.528C233.014 109.479 233.007 109.431 233 109.382C232.949 109.031 232.898 108.681 232.844 108.331C232.84 108.301 232.835 108.272 232.831 108.242C232.777 107.894 232.721 107.547 232.664 107.201C232.661 107.177 232.657 107.154 232.654 107.131C232.594 106.77 232.532 106.41 232.469 106.051C232.464 106.02 232.459 105.989 232.453 105.958C232.39 105.597 232.325 105.237 232.258 104.878C232.255 104.86 232.251 104.843 232.248 104.825C232.108 104.08 231.962 103.338 231.807 102.598C231.805 102.588 231.803 102.578 231.801 102.568C229.202 90.131 224.485 78.4733 218.045 67.9864C218.001 67.9145 217.956 67.8426 217.912 67.7708C216.966 66.2376 215.983 64.7295 214.964 63.2479C214.944 63.2192 214.925 63.1903 214.905 63.1616C214.715 62.8859 214.523 62.6114 214.331 62.3376C214.303 62.2985 214.276 62.2592 214.248 62.2202C214.053 61.9424 213.855 61.6658 213.657 61.39C213.634 61.3575 213.61 61.3252 213.587 61.2928C213.383 61.0095 213.178 60.7267 212.971 60.4455C212.95 60.4159 212.927 60.3866 212.906 60.3571C211.831 58.8987 210.722 57.4681 209.578 56.0665C209.559 56.0426 209.539 56.0185 209.52 55.9946C204.29 49.5963 198.348 43.8032 191.814 38.7356C191.789 38.7159 191.764 38.6958 191.738 38.6761C191.168 38.2347 190.593 37.7993 190.014 37.369C189.959 37.3277 189.903 37.2866 189.847 37.2454C188.415 36.185 186.955 35.159 185.47 34.1683C185.395 34.1183 185.32 34.0676 185.245 34.0178C184.985 33.8453 184.724 33.6745 184.463 33.5042C184.418 33.4748 184.373 33.445 184.328 33.4157C176.138 28.0993 167.19 23.8511 157.682 20.8699C157.637 20.856 157.593 20.8418 157.549 20.828C155.025 20.0403 152.462 19.3419 149.864 18.7362C149.815 18.7248 149.766 18.7134 149.717 18.7021C148.244 18.3609 146.759 18.0493 145.264 17.7685C145.215 17.7594 145.167 17.7506 145.119 17.7416C144.767 17.676 144.415 17.6124 144.062 17.5502C144.038 17.5459 144.014 17.5415 143.989 17.5373C143.633 17.4748 143.277 17.4137 142.92 17.3547C142.863 17.3453 142.805 17.3366 142.748 17.3273C142.4 17.2703 142.051 17.2139 141.702 17.1602C141.695 17.1591 141.687 17.1587 141.68 17.1576C141.343 17.106 141.007 17.0561 140.669 17.0076C140.587 16.9958 140.505 16.9841 140.422 16.9724C140.088 16.9251 139.753 16.8786 139.418 16.8343C139.352 16.8256 139.285 16.8176 139.219 16.809C138.522 16.7183 137.824 16.634 137.123 16.5566C137.065 16.5501 137.007 16.5432 136.948 16.5369C136.587 16.4975 136.225 16.46 135.862 16.4241C135.817 16.4197 135.772 16.4156 135.726 16.4112C135.374 16.3769 135.022 16.3439 134.669 16.3129C134.629 16.3094 134.589 16.3066 134.549 16.3031C133.779 16.2363 133.006 16.1764 132.231 16.1257C132.225 16.1253 132.219 16.1256 132.213 16.1252C131.854 16.1018 131.495 16.0799 131.136 16.06C131.063 16.056 130.991 16.052 130.919 16.0481C130.212 16.0103 129.504 15.9798 128.794 15.9555C128.717 15.9529 128.64 15.9502 128.563 15.9478C128.231 15.9371 127.898 15.928 127.566 15.9203C127.478 15.9183 127.391 15.9165 127.304 15.9147C126.538 15.8988 125.77 15.8898 125 15.8898C64.7401 15.8898 15.8898 64.7401 15.8898 125C15.8898 185.26 64.7401 234.11 125 234.11C125.789 234.11 126.576 234.102 127.361 234.085C127.413 234.084 127.465 234.082 127.517 234.081C127.871 234.073 128.223 234.064 128.576 234.052C128.647 234.05 128.717 234.047 128.788 234.045C129.53 234.02 130.27 233.987 131.007 233.947C131.045 233.945 131.082 233.944 131.119 233.942C131.476 233.922 131.832 233.9 132.188 233.877C132.249 233.873 132.309 233.869 132.37 233.865C133.098 233.816 133.824 233.761 134.548 233.698C134.611 233.693 134.673 233.687 134.736 233.681C135.075 233.651 135.414 233.62 135.753 233.587C135.821 233.58 135.889 233.573 135.957 233.567C136.299 233.532 136.64 233.497 136.981 233.46C137.046 233.453 137.111 233.446 137.176 233.438C138.293 233.314 139.404 233.173 140.51 233.016C140.568 233.007 140.626 232.999 140.684 232.991C141.024 232.942 141.363 232.891 141.702 232.839C141.762 232.83 141.822 232.821 141.882 232.811C144.544 232.398 147.174 231.888 149.769 231.286C149.82 231.274 149.871 231.262 149.923 231.25C162.789 228.244 174.779 222.96 185.447 215.848C185.504 215.809 185.562 215.771 185.619 215.733C185.882 215.557 186.144 215.38 186.404 215.202C186.47 215.158 186.535 215.113 186.599 215.069C188.418 213.823 190.196 212.524 191.933 211.173C191.963 211.15 191.992 211.126 192.022 211.103C192.29 210.894 192.557 210.684 192.824 210.473C192.862 210.442 192.9 210.412 192.939 210.381C197.366 206.853 201.512 202.989 205.34 198.826C205.349 198.815 205.359 198.805 205.369 198.794C207.14 196.866 208.843 194.874 210.474 192.821C210.504 192.784 210.534 192.746 210.564 192.709C211.834 191.106 213.06 189.466 214.24 187.792C214.276 187.741 214.312 187.689 214.348 187.638C214.828 186.954 215.301 186.265 215.766 185.57C215.775 185.557 215.783 185.544 215.792 185.531C223.23 174.397 228.675 161.819 231.616 148.305H247.831C236.913 206.203 186.071 250 125 250C55.9644 250 0 194.036 0 125ZM183.248 174.434C193 162.851 199.389 148.343 200.915 132.415H145.19L183.248 174.434Z" fill="#1C6758"/>
<path d="M32.839 125C32.839 102.486 40.9134 81.8579 54.3228 65.8518L64.4428 77.0905C53.9462 90.2249 47.6695 106.879 47.6695 125C47.6695 145.641 55.8129 164.379 69.0613 178.18L59.0132 189.339C42.8172 172.731 32.839 150.03 32.839 125Z" fill="#1C6758"/>
</svg>
