<svg width="250" height="250" viewBox="0 0 250 250" fill="none" xmlns="http://www.w3.org/2000/svg">
<path d="M125 0C194.036 2.1905e-06 250 55.9644 250 125C250 194.036 194.036 250 125 250C122.511 250 120.038 249.927 117.585 249.783V216.864C117.336 216.844 117.088 216.825 116.84 216.804C116.801 216.8 116.762 216.797 116.724 216.794C69.7022 212.609 32.8389 173.11 32.8389 125C32.8389 104.85 39.3066 86.2119 50.2773 71.0449L61.5459 81.1924C53.1246 93.5159 48.1992 108.418 48.1992 124.471C48.1993 142.331 54.2965 158.768 64.5225 171.812L126.148 115.996L185.874 171.301C195.86 158.339 201.801 142.099 201.801 124.471C201.801 105.909 195.216 88.8855 184.255 75.6084L195.426 65.5508C208.986 81.5988 217.161 102.345 217.161 125C217.161 167.465 188.44 203.22 149.364 213.904V197.323C158.846 194.154 167.503 189.186 174.932 182.823L133.512 144.47V188.56H133.475V233.784C133.851 233.755 134.228 233.725 134.604 233.692C134.647 233.689 134.691 233.685 134.734 233.682C135.106 233.649 135.478 233.614 135.849 233.577C135.86 233.576 135.871 233.574 135.883 233.573C137.024 233.46 138.161 233.33 139.292 233.182C139.338 233.176 139.384 233.17 139.43 233.164C139.777 233.118 140.125 233.07 140.472 233.021C140.52 233.014 140.569 233.007 140.618 233C140.969 232.95 141.319 232.898 141.669 232.845C141.699 232.84 141.728 232.835 141.758 232.83C142.105 232.776 142.453 232.721 142.8 232.664C142.823 232.66 142.846 232.657 142.869 232.653C143.23 232.594 143.59 232.533 143.949 232.47C143.98 232.464 144.011 232.459 144.042 232.453C144.403 232.39 144.763 232.325 145.122 232.258C145.14 232.255 145.157 232.25 145.175 232.247C145.92 232.108 146.663 231.962 147.402 231.808C147.412 231.806 147.423 231.803 147.433 231.801C159.869 229.202 171.527 224.484 182.014 218.045C182.086 218.001 182.158 217.956 182.229 217.912C183.763 216.966 185.27 215.983 186.752 214.964C186.781 214.944 186.81 214.924 186.839 214.904C187.114 214.715 187.389 214.523 187.662 214.331C187.701 214.304 187.741 214.276 187.78 214.248C188.058 214.052 188.335 213.855 188.61 213.657C188.643 213.634 188.675 213.61 188.707 213.587C188.99 213.383 189.273 213.178 189.555 212.972C189.584 212.95 189.613 212.927 189.643 212.905C191.101 211.831 192.532 210.722 193.934 209.578C193.958 209.559 193.982 209.539 194.006 209.52C200.404 204.29 206.197 198.348 211.265 191.814C211.284 191.789 211.305 191.764 211.324 191.738C211.766 191.168 212.201 190.594 212.631 190.015C212.672 189.959 212.714 189.903 212.755 189.848C213.815 188.415 214.841 186.955 215.832 185.47C215.882 185.395 215.933 185.32 215.982 185.245C216.155 184.985 216.326 184.724 216.496 184.463C216.525 184.418 216.555 184.373 216.584 184.328C221.9 176.138 226.149 167.19 229.13 157.682C229.144 157.637 229.158 157.593 229.172 157.549C229.96 155.025 230.658 152.462 231.264 149.863C231.275 149.814 231.287 149.766 231.298 149.717C231.639 148.244 231.951 146.759 232.231 145.264C232.24 145.215 232.25 145.167 232.259 145.119C232.324 144.768 232.388 144.415 232.45 144.062C232.454 144.038 232.459 144.014 232.463 143.989C232.525 143.633 232.587 143.277 232.646 142.92C232.655 142.863 232.664 142.805 232.673 142.748C232.73 142.4 232.786 142.051 232.84 141.702C232.841 141.695 232.842 141.687 232.843 141.68C232.894 141.344 232.944 141.007 232.992 140.67C233.004 140.588 233.016 140.504 233.027 140.422C233.075 140.088 233.122 139.753 233.166 139.418C233.175 139.352 233.183 139.285 233.191 139.219C233.282 138.522 233.366 137.824 233.443 137.123C233.45 137.065 233.457 137.006 233.463 136.948C233.502 136.587 233.54 136.225 233.576 135.862C233.581 135.817 233.584 135.772 233.589 135.727C233.623 135.375 233.657 135.022 233.688 134.669C233.691 134.629 233.694 134.59 233.697 134.55C233.764 133.779 233.823 133.006 233.874 132.23C233.874 132.225 233.875 132.219 233.875 132.213C233.898 131.854 233.921 131.495 233.94 131.136C233.944 131.064 233.948 130.991 233.952 130.919C233.99 130.212 234.021 129.504 234.045 128.794C234.048 128.717 234.049 128.64 234.052 128.562C234.062 128.231 234.072 127.898 234.08 127.565C234.082 127.478 234.083 127.391 234.085 127.304C234.101 126.538 234.11 125.77 234.11 125C234.11 124.765 234.11 124.53 234.108 124.295C233.729 64.3597 185.025 15.8897 125 15.8896C64.7401 15.8896 15.8896 64.7401 15.8896 125C15.8896 125.789 15.8984 126.576 15.915 127.361C15.9161 127.413 15.9178 127.466 15.9189 127.518C15.9269 127.871 15.9369 128.224 15.9482 128.576C15.9505 128.647 15.9527 128.717 15.9551 128.788C15.9804 129.529 16.0127 130.269 16.0527 131.007C16.0548 131.044 16.0565 131.082 16.0586 131.119C16.0783 131.476 16.0999 131.832 16.123 132.188C16.127 132.248 16.1307 132.309 16.1348 132.37C16.1833 133.098 16.239 133.824 16.3018 134.548C16.3072 134.611 16.3128 134.674 16.3184 134.736C16.3484 135.076 16.38 135.415 16.4131 135.753C16.4197 135.821 16.4268 135.889 16.4336 135.957C16.4677 136.299 16.5028 136.641 16.54 136.981C16.5471 137.046 16.5543 137.111 16.5615 137.176C16.6855 138.292 16.827 139.404 16.9844 140.51C16.9926 140.568 17.0004 140.626 17.0088 140.685C17.0577 141.024 17.1091 141.364 17.1611 141.702C17.1703 141.762 17.1792 141.822 17.1885 141.882C17.6019 144.544 18.1116 147.174 18.7139 149.769C18.7258 149.82 18.738 149.872 18.75 149.923C21.7563 162.789 27.0404 174.78 34.1523 185.447C34.1906 185.505 34.2292 185.562 34.2676 185.619C34.4433 185.882 34.6199 186.143 34.7979 186.404C34.8422 186.469 34.8871 186.535 34.9316 186.6C36.1774 188.418 37.4764 190.196 38.8271 191.933C38.8504 191.962 38.8742 191.993 38.8975 192.022C39.1063 192.29 39.3161 192.557 39.5273 192.823C39.5578 192.862 39.5886 192.9 39.6191 192.938C43.1467 197.366 47.0119 201.512 51.1748 205.34C51.1852 205.349 51.1957 205.36 51.2061 205.369C53.1343 207.141 55.1265 208.843 57.1787 210.474C57.2162 210.503 57.2535 210.534 57.291 210.563C58.894 211.834 60.5338 213.06 62.208 214.24C62.2593 214.276 62.3109 214.313 62.3623 214.349C63.0459 214.829 63.7356 215.301 64.4307 215.766C64.4435 215.774 64.4559 215.783 64.4688 215.792C75.6028 223.23 88.1816 228.675 101.695 231.615V247.831C43.7971 236.913 1.93824e-06 186.071 0 125C0 55.9644 55.9644 0 125 0ZM75.5654 183.248C87.1493 193.001 101.657 199.39 117.585 200.916V145.188L75.5654 183.248ZM125 32.8389C147.514 32.8389 168.142 40.9138 184.148 54.3232L172.909 64.4424C159.775 53.946 143.121 47.6699 125 47.6699C104.359 47.6699 85.6206 55.8131 71.8203 69.0615L60.6611 59.0137C77.2694 42.8176 99.9696 32.8389 125 32.8389Z" fill="#1C6758"/>
</svg>
