<svg width="201" height="201" viewBox="0 0 201 201" fill="none" xmlns="http://www.w3.org/2000/svg">
<path d="M200.05 99.0385L182.389 97.1154L171.888 94.2308L166.637 92.3077L164.251 91.3462L159.477 89.4231L155.659 87.5L153.749 86.5385L148.976 83.6538L144.203 80.7692L140.384 77.8846L136.566 75L133.702 72.1154L127.496 65.3846L121.291 58.6538L115.563 50.9615L113.177 47.1154L111.745 44.2308L110.79 42.3077L108.881 37.5L106.971 32.6923L103.63 22.1154L103.153 20.1923L102.198 16.3462L101.721 14.4231L101.243 11.5385L100.766 8.65385L100.289 5.76923L99.8114 9.13461L99.3341 11.5385L98.3795 17.3077L96.9475 22.1154L96.4702 24.0385L95.9928 26.4423L94.5608 30.7692L93.1289 34.6154L90.7422 39.4231L86.4463 47.5962L84.0597 51.9231L82.1503 54.8077L75.4678 63.4615L68.7852 70.1923L61.148 76.9231L52.5561 83.1731L44.9188 87.5L41.1002 89.4231L37.2816 91.3462L27.7351 95.1923L19.1432 97.1154L0.0501099 99.0385H9.59665L18.1885 100L25.8258 101.923L31.5537 103.846L35.3723 105.769L41.1002 108.654L44.9188 110.577L51.6014 114.423L56.3747 117.308L59.2387 119.231L64.0119 123.558L72.6038 131.731L77.3771 136.538L80.241 140.385L91.6969 157.692L97.4248 175L99.3341 187.019L100.289 200L101.243 189.423L101.721 184.615L102.675 178.846L105.062 169.231L106.971 164.423L108.881 159.615L113.654 150.962L116.518 146.154L119.382 142.308L125.11 134.615L128.928 129.808L132.747 125.962L138.475 121.154L145.158 116.346L152.795 111.538L159.477 107.692L176.661 101.923L185.253 100L200.05 99.0385Z" fill="#BAF713"/>
<path d="M100.289 0V5.76923M100.289 5.76923L100.766 8.65385L101.243 11.5385L101.721 14.4231L102.198 16.3462L103.153 20.1923L103.63 22.1154L106.971 32.6923L108.881 37.5L110.79 42.3077L111.745 44.2308L113.177 47.1154L115.563 50.9615L121.291 58.6538L127.496 65.3846L133.702 72.1154L136.566 75L140.384 77.8846L144.203 80.7692L148.976 83.6538L153.749 86.5385L155.659 87.5L159.477 89.4231L164.251 91.3462L166.637 92.3077L171.888 94.2308L182.389 97.1154L200.05 99.0385L185.253 100L176.661 101.923L159.477 107.692L152.795 111.538L145.158 116.346L138.475 121.154L132.747 125.962L128.928 129.808L125.11 134.615L119.382 142.308L116.518 146.154L113.654 150.962L108.881 159.615L106.971 164.423L105.062 169.231L102.675 178.846L101.721 184.615L101.243 189.423L100.289 200L99.3341 187.019L97.4248 175L91.6969 157.692L80.241 140.385L77.3771 136.538L72.6038 131.731L64.0119 123.558L59.2387 119.231L56.3747 117.308L51.6014 114.423L44.9188 110.577L41.1002 108.654L35.3723 105.769L31.5537 103.846L25.8258 101.923L18.1885 100L9.59665 99.0385H0.0501099L19.1432 97.1154L27.7351 95.1923L37.2816 91.3462L41.1002 89.4231L44.9188 87.5L52.5561 83.1731L61.148 76.9231L68.7852 70.1923L75.4678 63.4615L82.1503 54.8077L84.0597 51.9231L86.4463 47.5962L90.7422 39.4231L93.1289 34.6154L94.5608 30.7692L95.9928 26.4423L96.4702 24.0385L96.9475 22.1154L98.3795 17.3077L99.3341 11.5385L99.8114 9.13462L100.289 5.76923Z" stroke="#BAF713"/>
</svg>
