<svg width="514" height="527" viewBox="0 0 514 527" fill="none" xmlns="http://www.w3.org/2000/svg">
<path opacity="0.0344828" d="M220.337 326.894C167.388 282.464 123.645 237.291 95.7235 200.189C81.7579 181.631 71.7844 165.138 66.582 151.797C63.9806 145.125 62.5924 139.291 62.4671 134.411C62.3422 129.54 63.4749 125.682 65.848 122.854C68.221 120.026 71.8231 118.241 76.6424 117.518C81.47 116.794 87.4565 117.148 94.478 118.551C108.52 121.358 126.495 128.316 147.195 138.847C188.582 159.902 240.665 195.135 293.615 239.565C346.565 283.995 390.307 329.169 418.229 366.271C432.194 384.828 442.168 401.322 447.37 414.663C449.971 421.334 451.36 427.168 451.485 432.048C451.61 436.92 450.477 440.777 448.104 443.605C445.731 446.433 442.129 448.219 437.31 448.942C432.482 449.666 426.496 449.312 419.474 447.908C405.432 445.102 387.457 438.144 366.757 427.613C325.37 406.558 273.287 371.324 220.337 326.894Z" stroke="white" stroke-width="2"/>
<path opacity="0.0689655" d="M216.671 321.536C167.795 272.66 128.156 223.846 103.574 184.452C91.2794 164.747 82.7813 147.447 78.7615 133.704C76.7515 126.831 75.877 120.898 76.1776 116.026C76.4776 111.162 77.9423 107.418 80.5528 104.807C83.1632 102.197 86.9072 100.732 91.7712 100.432C96.6436 100.132 102.576 101.006 109.449 103.016C123.193 107.036 140.493 115.534 160.197 127.829C199.591 152.411 248.405 192.05 297.281 240.926C346.157 289.801 385.796 338.615 410.377 378.01C422.672 397.714 431.171 415.014 435.19 428.758C437.2 435.63 438.075 441.563 437.774 446.435C437.474 451.299 436.01 455.043 433.399 457.654C430.789 460.264 427.045 461.729 422.181 462.029C417.308 462.33 411.375 461.455 404.503 459.445C390.759 455.425 373.459 446.927 353.755 434.632C314.36 410.05 265.547 370.411 216.671 321.536Z" stroke="white" stroke-width="2"/>
<path opacity="0.103448" d="M213.311 315.869C168.882 262.92 133.648 210.837 112.593 169.45C102.062 148.749 95.1043 130.774 92.2976 116.732C90.8942 109.711 90.5401 103.724 91.2642 98.8967C91.987 94.0775 93.7724 90.4754 96.6005 88.1023C99.4285 85.7293 103.286 84.5965 108.158 84.7215C113.038 84.8467 118.872 86.235 125.543 88.8364C138.884 94.0387 155.378 104.012 173.935 117.978C211.037 145.899 256.211 189.642 300.641 242.592C345.07 295.541 380.304 347.624 401.359 389.011C411.89 409.712 418.848 427.687 421.654 441.729C423.058 448.75 423.412 454.736 422.688 459.564C421.965 464.383 420.18 467.986 417.352 470.359C414.523 472.732 410.666 473.864 405.794 473.739C400.914 473.614 395.08 472.226 388.409 469.624C375.068 464.422 358.574 454.449 340.017 440.483C302.915 412.561 257.741 368.819 213.311 315.869Z" stroke="white" stroke-width="2"/>
<path opacity="0.137931" d="M210.284 309.924C170.638 253.304 140.078 198.348 122.71 155.284C114.024 133.744 108.659 115.231 107.087 100.998C106.301 93.8808 106.47 87.8863 107.612 83.1401C108.752 78.4021 110.844 74.9694 113.869 72.8518C116.893 70.7343 120.834 69.9421 125.676 70.4912C130.527 71.0412 136.218 72.9327 142.637 76.1056C155.474 82.4509 171.035 93.824 188.305 109.354C222.832 140.403 264.022 187.916 303.668 244.536C343.314 301.157 373.874 356.112 391.241 399.177C399.928 420.717 405.293 439.23 406.865 453.463C407.651 460.58 407.482 466.574 406.34 471.32C405.2 476.058 403.107 479.491 400.083 481.609C397.059 483.726 393.118 484.519 388.276 483.969C383.425 483.419 377.734 481.528 371.315 478.355C358.478 472.01 342.916 460.637 325.647 445.107C291.119 414.058 249.93 366.545 210.284 309.924Z" stroke="white" stroke-width="2"/>
<path opacity="0.172414" d="M207.612 303.731C173.052 243.87 147.398 186.46 133.85 142.046C127.073 119.831 123.343 100.921 123.017 86.6051C122.854 79.4466 123.545 73.4896 125.096 68.861C126.645 64.2404 129.029 61.0031 132.226 59.1572C135.423 57.3113 139.419 56.8656 144.194 57.8346C148.979 58.8054 154.483 61.1856 160.601 64.9059C172.836 72.3459 187.347 85.032 203.198 102.008C234.888 135.948 271.779 186.87 306.339 246.731C340.9 306.591 366.554 364.001 380.102 408.415C386.878 430.63 390.609 449.54 390.935 463.856C391.098 471.015 390.407 476.972 388.856 481.6C387.307 486.221 384.923 489.458 381.726 491.304C378.529 493.15 374.533 493.596 369.757 492.626C364.973 491.656 359.469 489.276 353.351 485.555C341.116 478.115 326.605 465.429 310.754 448.453C279.064 414.513 242.173 363.591 207.612 303.731Z" stroke="white" stroke-width="2"/>
<path opacity="0.206897" d="M205.316 297.32C176.105 234.675 155.552 175.248 145.926 129.822C141.112 107.101 139.043 87.9373 139.966 73.6475C140.428 66.5021 141.636 60.6279 143.584 56.1521C145.53 51.6841 148.187 48.6669 151.533 47.1067C154.879 45.5465 158.898 45.4507 163.571 46.8323C168.252 48.2163 173.528 51.0672 179.299 55.3065C190.839 63.7846 204.189 77.6871 218.5 95.9799C247.111 132.553 279.424 186.497 308.636 249.141C337.847 311.786 358.4 371.213 368.026 416.639C372.84 439.36 374.909 458.524 373.985 472.813C373.524 479.959 372.316 485.833 370.368 490.309C368.422 494.777 365.765 497.794 362.419 499.354C359.073 500.915 355.054 501.01 350.381 499.629C345.7 498.245 340.424 495.394 334.653 491.154C323.113 482.676 309.763 468.774 295.452 450.481C266.841 413.908 234.528 359.964 205.316 297.32Z" stroke="white" stroke-width="2"/>
<path opacity="0.241379" d="M203.413 290.725C179.773 225.773 164.477 164.78 158.848 118.688C156.032 95.6339 155.641 76.3632 157.806 62.2082C158.889 55.1302 160.604 49.3836 162.935 45.0948C165.263 40.8133 168.173 38.0391 171.642 36.7765C175.111 35.5138 179.123 35.7687 183.658 37.5523C188.201 39.339 193.209 42.639 198.588 47.3651C209.345 56.8166 221.433 71.8299 234.095 91.3003C259.409 130.228 286.898 186.782 310.538 251.735C334.179 316.687 349.474 377.679 355.104 423.772C357.92 446.826 358.311 466.096 356.145 480.251C355.063 487.329 353.348 493.076 351.016 497.365C348.689 501.646 345.779 504.42 342.31 505.683C338.841 506.946 334.829 506.691 330.294 504.907C325.751 503.121 320.743 499.821 315.364 495.095C304.607 485.643 292.519 470.63 279.857 451.159C254.542 412.232 227.054 355.677 203.413 290.725Z" stroke="white" stroke-width="2"/>
<path opacity="0.275862" d="M201.918 283.984C184.028 217.218 174.107 155.125 172.516 108.717C171.72 85.5055 173.011 66.2741 176.401 52.3617C178.097 45.405 180.306 39.8297 183.002 35.7604C185.694 31.6981 188.835 29.1881 192.401 28.2326C195.967 27.2771 199.941 27.8806 204.304 30.0527C208.673 32.2286 213.374 35.9524 218.321 41.1294C228.213 51.4825 238.947 67.4921 249.864 87.992C271.689 128.978 294.144 187.713 312.034 254.478C329.923 321.244 339.845 383.337 341.436 429.745C342.232 452.957 340.941 472.188 337.551 486.1C335.855 493.057 333.646 498.632 330.95 502.702C328.258 506.764 325.117 509.274 321.551 510.23C317.985 511.185 314.011 510.582 309.648 508.409C305.278 506.234 300.578 502.51 295.631 497.333C285.738 486.98 275.005 470.97 264.088 450.47C242.263 409.485 219.808 350.749 201.918 283.984Z" stroke="white" stroke-width="2"/>
<path opacity="0.310345" d="M200.842 277.129C188.839 209.058 184.367 146.336 186.827 99.9669C188.057 76.7741 191.019 57.7284 195.609 44.1645C197.905 37.382 200.591 32.0205 203.632 28.2016C206.668 24.3894 210.015 22.1626 213.651 21.5216C217.286 20.8805 221.193 21.8282 225.35 24.3722C229.513 26.9207 233.872 31.04 238.348 36.6284C247.301 47.8043 256.598 64.6885 265.687 86.0619C283.857 128.794 301.107 189.263 313.11 257.333C325.113 325.404 329.584 388.126 327.125 434.495C325.894 457.688 322.933 476.734 318.342 490.298C316.047 497.08 313.361 502.442 310.32 506.261C307.284 510.073 303.937 512.3 300.301 512.941C296.665 513.582 292.758 512.634 288.602 510.09C284.438 507.542 280.08 503.422 275.603 497.834C266.651 486.658 257.354 469.774 248.265 448.4C230.095 405.669 212.844 345.2 200.842 277.129Z" stroke="white" stroke-width="2"/>
<path opacity="0.344828" d="M200.193 270.199C194.169 201.341 195.18 138.468 201.672 92.4896C204.919 69.4923 209.529 50.7771 215.284 37.6649C218.162 31.1083 221.306 26.0013 224.668 22.4621C228.024 18.929 231.553 17.0024 235.231 16.6806C238.908 16.3589 242.718 17.6434 246.637 20.5401C250.562 23.4417 254.545 27.9252 258.518 33.8825C266.462 45.7962 274.252 63.4264 281.443 85.5105C295.821 129.663 307.735 191.406 313.759 260.263C319.783 329.121 318.772 391.994 312.28 437.973C309.033 460.97 304.423 479.685 298.668 492.797C295.79 499.354 292.646 504.461 289.284 508C285.928 511.533 282.399 513.46 278.721 513.782C275.044 514.104 271.234 512.819 267.315 509.922C263.389 507.021 259.407 502.537 255.434 496.58C247.49 484.666 239.7 467.036 232.508 444.952C218.131 400.799 206.217 339.057 200.193 270.199Z" stroke="white" stroke-width="2"/>
<path opacity="0.37931" d="M199.976 263.23C199.976 194.11 206.464 131.564 216.938 86.3262C222.177 63.6994 228.401 45.4572 235.277 32.8965C238.715 26.6156 242.292 21.8021 245.95 18.5693C249.601 15.3422 253.284 13.7305 256.976 13.7305C260.668 13.7305 264.351 15.3422 268.002 18.5693C271.66 21.8021 275.237 26.6156 278.675 32.8965C285.551 45.4572 291.775 63.6994 297.014 86.3262C307.488 131.564 313.976 194.11 313.976 263.23C313.976 332.351 307.488 394.897 297.014 440.135C291.775 462.762 285.551 481.004 278.675 493.564C275.237 499.845 271.66 504.659 268.002 507.892C264.351 511.119 260.668 512.73 256.976 512.73C253.284 512.73 249.601 511.119 245.95 507.892C242.292 504.659 238.715 499.845 235.277 493.564C228.401 481.004 222.177 462.762 216.938 440.135C206.464 394.897 199.976 332.351 199.976 263.23Z" stroke="white" stroke-width="2"/>
<path opacity="0.413793" d="M200.193 256.262C206.217 187.404 218.131 125.662 232.508 81.5093C239.7 59.4251 247.49 41.7949 255.434 29.8812C259.407 23.9239 263.389 19.4405 267.315 16.5388C271.234 13.6422 275.044 12.3576 278.721 12.6794C282.399 13.0011 285.928 14.9277 289.284 18.4608C292.646 22.0001 295.79 27.107 298.668 33.6636C304.422 46.7759 309.033 65.491 312.28 88.4884C318.772 134.467 319.783 197.34 313.759 266.198C307.735 335.056 295.821 396.798 281.443 440.951C274.252 463.035 266.462 480.665 258.518 492.579C254.545 498.536 250.562 503.019 246.637 505.921C242.718 508.818 238.908 510.102 235.231 509.781C231.553 509.459 228.024 507.532 224.668 503.999C221.306 500.46 218.162 495.353 215.284 488.796C209.529 475.684 204.919 456.969 201.672 433.972C195.18 387.993 194.169 325.12 200.193 256.262Z" stroke="white" stroke-width="2"/>
<path opacity="0.448276" d="M200.842 249.332C212.845 181.261 230.095 120.792 248.265 78.0605C257.354 56.6872 266.651 39.803 275.604 28.6271C280.08 23.0387 284.438 18.9194 288.602 16.3709C292.759 13.8268 296.666 12.8792 300.301 13.5202C303.937 14.1613 307.284 16.3881 310.32 20.2003C313.361 24.0191 316.047 29.3807 318.343 36.1631C322.933 49.727 325.895 68.7728 327.125 91.9656C329.585 138.335 325.113 201.057 313.11 269.128C301.107 337.198 283.857 397.667 265.687 440.399C256.598 461.772 247.301 478.657 238.348 489.833C233.872 495.421 229.514 499.54 225.35 502.089C221.193 504.633 217.286 505.58 213.651 504.939C210.015 504.298 206.668 502.071 203.632 498.259C200.591 494.44 197.905 489.079 195.609 482.296C191.019 468.733 188.057 449.687 186.827 426.494C184.367 380.124 188.839 317.402 200.842 249.332Z" stroke="white" stroke-width="2"/>
<path opacity="0.482759" d="M201.918 242.478C219.808 175.712 242.263 116.977 264.088 75.9916C275.005 55.4917 285.738 39.4821 295.631 29.1289C300.578 23.952 305.278 20.2282 309.648 18.0523C314.011 15.8802 317.985 15.2767 321.551 16.2322C325.117 17.1877 328.258 19.6977 330.95 23.76C333.646 27.8293 335.855 33.4046 337.551 40.3613C340.941 54.2736 342.232 73.5051 341.436 96.7169C339.845 143.124 329.923 205.218 312.034 271.983C294.144 338.749 271.689 397.484 249.864 438.47C238.947 458.97 228.213 474.979 218.321 485.332C213.374 490.509 208.674 494.233 204.304 496.409C199.941 498.581 195.967 499.185 192.401 498.229C188.835 497.274 185.694 494.764 183.002 490.701C180.306 486.632 178.097 481.057 176.401 474.1C173.011 460.188 171.72 440.956 172.516 417.744C174.107 371.337 184.028 309.243 201.918 242.478Z" stroke="white" stroke-width="2"/>
<path opacity="0.517241" d="M203.413 235.735C227.054 170.783 254.542 114.228 279.857 75.3008C292.519 55.8304 304.607 40.8171 315.364 31.3656C320.743 26.6395 325.751 23.3395 330.294 21.5528C334.829 19.7692 338.841 19.5143 342.31 20.777C345.779 22.0397 348.689 24.8139 351.016 29.0953C353.348 33.3841 355.063 39.1307 356.145 46.2087C358.311 60.3637 357.92 79.6344 355.104 102.688C349.475 148.781 334.179 209.773 310.538 274.725C286.898 339.678 259.409 396.232 234.095 435.16C221.433 454.63 209.345 469.643 198.588 479.095C193.209 483.821 188.201 487.121 183.658 488.908C179.123 490.691 175.111 490.946 171.642 489.684C168.173 488.421 165.263 485.647 162.936 481.365C160.604 477.076 158.889 471.33 157.806 464.252C155.641 450.097 156.032 430.826 158.848 407.772C164.477 361.68 179.773 300.687 203.413 235.735Z" stroke="white" stroke-width="2"/>
<path opacity="0.551724" d="M205.316 229.142C234.528 166.497 266.841 112.553 295.452 75.9802C309.763 57.6874 323.113 43.7848 334.653 35.3068C340.424 31.0675 345.7 28.2165 350.381 26.8325C355.054 25.4509 359.073 25.5468 362.419 27.107C365.765 28.6672 368.422 31.6844 370.367 36.1524C372.316 40.6282 373.524 46.5023 373.985 53.6478C374.909 67.9376 372.84 87.1009 368.026 109.822C358.4 155.248 337.847 214.675 308.635 277.32C279.424 339.965 247.111 393.908 218.5 430.481C204.189 448.774 190.839 462.677 179.299 471.155C173.528 475.394 168.252 478.245 163.571 479.629C158.898 481.011 154.879 480.915 151.533 479.355C148.187 477.794 145.53 474.777 143.584 470.309C141.635 465.833 140.428 459.959 139.966 452.814C139.043 438.524 141.112 419.361 145.926 396.64C155.552 351.214 176.105 291.786 205.316 229.142Z" stroke="white" stroke-width="2"/>
<path opacity="0.586207" d="M207.612 222.731C242.173 162.87 279.064 111.948 310.754 78.0079C326.605 61.032 341.116 48.3459 353.351 40.9059C359.469 37.1856 364.973 34.8054 369.757 33.8346C374.533 32.8656 378.529 33.3113 381.726 35.1572C384.923 37.0031 387.307 40.2404 388.856 44.861C390.407 49.4896 391.098 55.4466 390.935 62.6051C390.609 76.921 386.878 95.8311 380.102 118.046C366.554 162.46 340.9 219.87 306.339 279.731C271.779 339.591 234.888 390.513 203.198 424.453C187.347 441.429 172.836 454.115 160.601 461.555C154.483 465.276 148.979 467.656 144.194 468.626C139.419 469.596 135.423 469.15 132.226 467.304C129.029 465.458 126.645 462.221 125.096 457.6C123.545 452.972 122.854 447.015 123.017 439.856C123.343 425.54 127.073 406.63 133.85 384.415C147.398 340.001 173.052 282.591 207.612 222.731Z" stroke="white" stroke-width="2"/>
<path opacity="0.62069" d="M210.284 216.537C249.93 159.917 291.119 112.404 325.647 81.3546C342.916 65.8247 358.478 54.4516 371.315 48.1063C377.734 44.9334 383.425 43.0419 388.275 42.4918C393.118 41.9427 397.059 42.735 400.083 44.8525C403.107 46.97 405.2 50.4028 406.34 55.1408C407.482 59.887 407.651 65.8815 406.865 72.9986C405.293 87.2316 399.928 105.745 391.241 127.284C373.874 170.349 343.314 225.304 303.668 281.925C264.022 338.545 222.832 386.058 188.305 417.107C171.035 432.637 155.474 444.01 142.637 450.356C136.218 453.529 130.527 455.42 125.676 455.97C120.834 456.519 116.893 455.727 113.869 453.609C110.844 451.492 108.752 448.059 107.612 443.321C106.47 438.575 106.301 432.58 107.087 425.463C108.659 411.23 114.024 392.717 122.71 371.178C140.078 328.113 170.638 273.158 210.284 216.537Z" stroke="white" stroke-width="2"/>
<path opacity="0.655172" d="M213.311 210.591C257.741 157.642 302.915 113.899 340.017 85.9778C358.574 72.0122 375.068 62.0386 388.409 56.8363C395.08 54.2349 400.914 52.8466 405.794 52.7214C410.666 52.5964 414.523 53.7292 417.351 56.1022C420.18 58.4753 421.965 62.0773 422.688 66.8966C423.412 71.7243 423.058 77.7108 421.654 84.7322C418.848 98.7741 411.89 116.749 401.359 137.45C380.304 178.837 345.07 230.92 300.641 283.869C256.211 336.819 211.037 380.561 173.935 408.483C155.378 422.448 138.884 432.422 125.543 437.624C118.872 440.226 113.038 441.614 108.158 441.739C103.286 441.864 99.4285 440.731 96.6005 438.358C93.7724 435.985 91.987 432.383 91.2641 427.564C90.54 422.736 90.8942 416.75 92.2976 409.728C95.1042 395.687 102.062 377.712 112.593 357.011C133.648 315.624 168.881 263.541 213.311 210.591Z" stroke="white" stroke-width="2"/>
<path opacity="0.689655" d="M216.671 204.925C265.547 156.05 314.361 116.411 353.755 91.8291C373.459 79.534 390.759 71.036 404.503 67.0162C411.375 65.0061 417.308 64.1316 422.181 64.4322C427.045 64.7323 430.789 66.1969 433.399 68.8074C436.01 71.4179 437.474 75.1619 437.774 80.0258C438.075 84.8982 437.2 90.8311 435.19 97.7035C431.171 111.447 422.672 128.747 410.377 148.452C385.796 187.846 346.157 236.66 297.281 285.536C248.405 334.411 199.591 374.05 160.197 398.632C140.493 410.927 123.193 419.425 109.449 423.445C102.576 425.455 96.6436 426.33 91.7712 426.029C86.9073 425.729 83.1633 424.264 80.5528 421.654C77.9423 419.043 76.4777 415.299 76.1776 410.435C75.877 405.563 76.7515 399.63 78.7616 392.758C82.7814 379.014 91.2794 361.714 103.575 342.01C128.156 302.615 167.795 253.801 216.671 204.925Z" stroke="white" stroke-width="2"/>
<path opacity="0.724138" d="M220.337 199.566C273.287 155.136 325.37 119.902 366.757 98.8478C387.457 88.3168 405.432 81.3589 419.474 78.5522C426.496 77.1488 432.482 76.7947 437.31 77.5188C442.129 78.2417 445.731 80.0271 448.104 82.8551C450.477 85.6832 451.61 89.5406 451.485 94.4122C451.36 99.2922 449.971 105.126 447.37 111.797C442.168 125.138 432.194 141.632 418.229 160.19C390.307 197.292 346.564 242.465 293.615 286.895C240.665 331.325 188.582 366.559 147.195 387.613C126.495 398.144 108.52 405.102 94.4779 407.909C87.4565 409.312 81.47 409.667 76.6423 408.942C71.823 408.22 68.2209 406.434 65.8479 403.606C63.4749 400.778 62.3421 396.921 62.4671 392.049C62.5923 387.169 63.9806 381.335 66.5819 374.664C71.7843 361.323 81.7578 344.829 95.7234 326.272C123.645 289.169 167.388 243.996 220.337 199.566Z" stroke="white" stroke-width="2"/>
<path opacity="0.758621" d="M224.282 194.539C280.903 154.893 335.858 124.332 378.923 106.965C400.462 98.2782 418.975 92.9134 433.208 91.3412C440.325 90.5551 446.32 90.7241 451.066 91.8662C455.804 93.0063 459.237 95.0989 461.354 98.123C463.472 101.147 464.264 105.089 463.715 109.931C463.165 114.781 461.274 120.472 458.101 126.891C451.755 139.728 440.382 155.29 424.852 172.559C393.803 207.087 346.29 248.276 289.67 287.922C233.049 327.568 178.094 358.128 135.029 375.496C113.49 384.182 94.9766 389.547 80.7436 391.119C73.6266 391.906 67.632 391.737 62.8858 390.594C58.1479 389.454 54.7151 387.362 52.5976 384.338C50.4801 381.314 49.6878 377.372 50.2369 372.53C50.7869 367.679 52.6784 361.988 55.8513 355.569C62.1966 342.733 73.5697 327.171 89.0996 309.901C120.149 275.374 167.662 234.185 224.282 194.539Z" stroke="white" stroke-width="2"/>
<path opacity="0.793103" d="M228.476 189.867C288.336 155.307 345.746 129.652 390.161 116.104C412.375 109.328 431.286 105.597 445.601 105.271C452.76 105.109 458.717 105.799 463.346 107.351C467.966 108.9 471.203 111.283 473.049 114.48C474.895 117.678 475.341 121.673 474.372 126.449C473.401 131.233 471.021 136.738 467.301 142.856C459.861 155.091 447.175 169.602 430.199 185.452C396.259 217.142 345.336 254.034 285.476 288.594C225.616 323.154 168.206 348.809 123.791 362.357C101.577 369.133 82.6664 372.864 68.3505 373.19C61.192 373.352 55.235 372.662 50.6064 371.11C45.9859 369.561 42.7485 367.178 40.9026 363.98C39.0568 360.783 38.611 356.788 39.58 352.012C40.5508 347.228 42.931 341.723 46.6513 335.605C54.0913 323.37 66.7774 308.859 83.7533 293.009C117.693 261.319 168.616 224.427 228.476 189.867Z" stroke="white" stroke-width="2"/>
<path opacity="0.827586" d="M232.887 185.571C295.531 156.359 354.959 135.806 400.385 126.18C423.106 121.366 442.269 119.297 456.559 120.221C463.704 120.682 469.579 121.89 474.054 123.839C478.522 125.784 481.54 128.441 483.1 131.787C484.66 135.133 484.756 139.152 483.374 143.825C481.99 148.507 479.139 153.783 474.9 159.553C466.422 171.093 452.519 184.443 434.227 198.754C397.654 227.365 343.71 259.678 281.065 288.89C218.421 318.101 158.993 338.655 113.567 348.28C90.8461 353.094 71.6827 355.163 57.3929 354.24C50.2475 353.778 44.3733 352.571 39.8976 350.622C35.4296 348.676 32.4123 346.019 30.8521 342.674C29.2919 339.328 29.1961 335.308 30.5777 330.635C31.9617 325.954 34.8126 320.678 39.052 314.907C47.53 303.367 61.4326 290.017 79.7254 275.706C116.298 247.095 170.242 214.782 232.887 185.571Z" stroke="white" stroke-width="2"/>
<path opacity="0.862069" d="M237.481 181.668C302.433 158.027 363.426 142.732 409.518 137.102C432.572 134.286 451.843 133.896 465.997 136.061C473.075 137.144 478.822 138.858 483.111 141.19C487.392 143.518 490.167 146.427 491.429 149.896C492.692 153.366 492.437 157.378 490.653 161.913C488.867 166.456 485.567 171.463 480.841 176.842C471.389 187.599 456.376 199.687 436.905 212.349C397.978 237.664 341.423 265.152 276.471 288.793C211.519 312.434 150.526 327.729 104.434 333.359C81.38 336.175 62.1093 336.565 47.9543 334.4C40.8763 333.317 35.1297 331.602 30.8409 329.271C26.5595 326.943 23.7852 324.034 22.5226 320.564C21.2599 317.095 21.5148 313.083 23.2984 308.548C25.0851 304.005 28.3851 298.998 33.1112 293.619C42.5627 282.861 57.576 270.774 77.0464 258.112C115.974 232.797 172.529 205.309 237.481 181.668Z" stroke="white" stroke-width="2"/>
<path opacity="0.896552" d="M242.223 178.173C308.989 160.283 371.082 150.362 417.49 148.771C440.702 147.975 459.933 149.265 473.845 152.656C480.802 154.351 486.377 156.56 490.447 159.257C494.509 161.949 497.019 165.089 497.974 168.655C498.93 172.221 498.326 176.196 496.154 180.558C493.978 184.928 490.255 189.629 485.078 194.576C474.725 204.468 458.715 215.201 438.215 226.118C397.229 247.944 338.494 270.399 271.729 288.288C204.963 306.178 142.87 316.099 96.4621 317.691C73.2504 318.486 54.0189 317.196 40.1066 313.805C33.1499 312.11 27.5746 309.901 23.5053 307.204C19.443 304.512 16.9329 301.372 15.9774 297.806C15.0219 294.24 15.6255 290.265 17.7976 285.903C19.9735 281.533 23.6973 276.832 28.8742 271.886C39.2274 261.993 55.237 251.26 75.7369 240.343C116.722 218.517 175.458 196.063 242.223 178.173Z" stroke="white" stroke-width="2"/>
<path opacity="0.931035" d="M247.078 175.096C315.149 163.094 377.871 158.622 424.24 161.081C447.433 162.312 466.479 165.273 480.043 169.864C486.825 172.159 492.187 174.846 496.005 177.887C499.818 180.922 502.044 184.269 502.685 187.905C503.327 191.541 502.379 195.448 499.835 199.604C497.286 203.768 493.167 208.126 487.579 212.603C476.403 221.555 459.519 230.853 438.145 239.941C395.413 258.112 334.944 275.362 266.874 287.364C198.803 299.367 136.081 303.839 89.7117 301.379C66.5189 300.149 47.4731 297.187 33.9092 292.597C27.1268 290.302 21.7653 287.615 17.9464 284.574C14.1342 281.538 11.9074 278.191 11.2664 274.556C10.6253 270.92 11.573 267.013 14.117 262.856C16.6655 258.693 20.7848 254.334 26.3732 249.858C37.5491 240.905 54.4333 231.608 75.8066 222.52C118.539 204.349 179.007 187.099 247.078 175.096Z" stroke="white" stroke-width="2"/>
<path opacity="0.965517" d="M252.008 172.448C320.866 166.424 383.739 167.435 429.718 173.927C452.715 177.174 471.43 181.784 484.542 187.539C491.099 190.417 496.206 193.561 499.745 196.923C503.278 200.279 505.205 203.808 505.527 207.486C505.848 211.163 504.564 214.973 501.667 218.892C498.765 222.817 494.282 226.8 488.325 230.773C476.411 238.717 458.781 246.507 436.697 253.698C392.544 268.076 330.802 279.99 261.944 286.014C193.086 292.038 130.213 291.027 84.2344 284.535C61.2371 281.288 42.5219 276.678 29.4097 270.923C22.8531 268.045 17.7461 264.901 14.2068 261.539C10.6737 258.183 8.74713 254.654 8.42537 250.976C8.10362 247.299 9.3882 243.489 12.2848 239.57C15.1865 235.644 19.67 231.662 25.6272 227.689C37.5409 219.745 55.1712 211.955 77.2553 204.763C121.408 190.386 183.15 178.472 252.008 172.448Z" stroke="white" stroke-width="2"/>
<path d="M256.976 170.23C326.097 170.23 388.642 176.718 433.88 187.192C456.507 192.431 474.749 198.655 487.31 205.531C493.591 208.969 498.404 212.546 501.637 216.204C504.864 219.856 506.476 223.539 506.476 227.23C506.476 230.922 504.864 234.605 501.637 238.257C498.404 241.915 493.591 245.491 487.31 248.93C474.749 255.806 456.507 262.03 433.88 267.269C388.642 277.743 326.097 284.23 256.976 284.23C187.855 284.23 125.31 277.743 80.0717 267.269C57.4448 262.03 39.2027 255.806 26.642 248.93C20.3611 245.491 15.5476 241.915 12.3148 238.257C9.08767 234.605 7.47595 230.922 7.47595 227.23C7.47595 223.539 9.08767 219.856 12.3148 216.204C15.5476 212.546 20.3611 208.969 26.642 205.531C39.2027 198.655 57.4448 192.431 80.0717 187.192C125.31 176.718 187.855 170.23 256.976 170.23Z" stroke="white" stroke-width="2"/>
</svg>
