<svg width="685" height="685" viewBox="0 0 685 685" fill="none" xmlns="http://www.w3.org/2000/svg">
<path opacity="0.0344828" d="M147.158 344.651C124.855 335.672 128.28 303.087 151.963 298.942L232.642 284.82C246.41 282.41 255.781 269.511 253.819 255.673L242.317 174.578C238.942 150.774 268.874 137.447 284.305 155.883L336.875 218.694C345.846 229.412 361.703 231.078 372.705 222.46L437.186 171.952C456.113 157.126 482.621 176.385 474.369 198.968L446.259 275.899C441.462 289.027 447.947 303.593 460.912 308.812L536.893 339.4C559.197 348.378 555.772 380.963 532.089 385.109L451.409 399.23C437.642 401.64 428.27 414.539 430.233 428.378L441.734 509.472C445.11 533.277 415.178 546.604 399.746 528.167L347.176 465.356C338.206 454.639 322.349 452.972 311.346 461.591L246.866 512.099C227.938 526.924 201.431 507.665 209.682 485.083L237.793 408.151C242.589 395.024 236.105 380.458 223.139 375.238L147.158 344.651Z" stroke="white" stroke-width="2"/>
<path opacity="0.0689655" d="M150.66 334.983C128.857 324.849 133.983 292.488 157.85 289.588L236.799 279.995C250.674 278.309 260.708 265.918 259.472 251.996L252.441 172.777C250.316 148.829 280.905 137.086 295.35 156.305L343.133 219.881C351.531 231.054 367.278 233.548 378.717 225.517L443.807 179.819C463.484 166.004 488.948 186.624 479.526 208.744L448.359 281.913C442.882 294.771 448.595 309.657 461.27 315.548L533.392 349.068C555.194 359.201 550.069 391.563 526.202 394.463L447.251 404.057C433.377 405.743 423.343 418.133 424.579 432.055L431.609 511.274C433.735 535.223 403.146 546.965 388.701 527.745L340.918 464.169C332.521 452.997 316.773 450.503 305.335 458.534L240.244 504.232C220.566 518.047 195.103 497.427 204.525 475.308L235.692 402.138C241.169 389.279 235.455 374.395 222.781 368.504L150.66 334.983Z" stroke="white" stroke-width="2"/>
<path opacity="0.103448" d="M154.63 325.688C133.388 314.427 140.2 282.377 164.186 280.73L241.16 275.445C255.103 274.488 265.772 262.639 265.267 248.671L262.477 171.567C261.608 147.54 292.769 137.415 306.189 157.364L349.252 221.382C357.053 232.979 372.65 236.294 384.493 228.873L449.872 187.906C470.246 175.139 494.595 197.063 484.028 218.66L450.119 287.963C443.976 300.517 448.904 315.681 461.252 322.227L529.42 358.363C550.663 369.624 543.851 401.673 519.864 403.32L442.892 408.605C428.948 409.563 418.279 421.412 418.784 435.379L421.574 512.483C422.443 536.51 391.282 546.635 377.862 526.686L334.799 462.668C326.998 451.071 311.401 447.756 299.558 455.178L234.179 496.145C213.805 508.911 189.456 486.987 200.023 465.391L233.932 396.088C240.075 383.534 235.148 368.369 222.799 361.823L154.63 325.688Z" stroke="white" stroke-width="2"/>
<path opacity="0.137931" d="M159.041 316.786C138.416 304.429 146.897 272.78 170.936 272.39L245.705 271.18C259.679 270.953 270.953 259.679 271.18 245.704L272.391 170.936C272.78 146.896 304.429 138.416 316.786 159.04L355.219 223.186C362.403 235.175 377.803 239.302 390.019 232.51L455.377 196.176C476.39 184.493 499.559 207.661 487.876 228.675L451.541 294.032C444.75 306.248 448.876 321.649 460.865 328.832L525.011 367.264C545.636 379.621 537.155 411.271 513.116 411.66L438.347 412.871C424.373 413.098 413.099 424.372 412.872 438.346L411.661 513.116C411.271 537.155 379.623 545.635 367.266 525.011L328.832 460.865C321.648 448.876 306.248 444.749 294.032 451.541L228.675 487.876C207.661 499.558 184.493 476.39 196.175 455.376L232.511 390.019C239.302 377.803 235.175 362.403 223.186 355.219L159.041 316.786Z" stroke="white" stroke-width="2"/>
<path opacity="0.172414" d="M163.859 308.299C143.91 294.879 154.035 263.718 178.062 264.588L250.417 267.204C264.384 267.71 276.233 257.041 277.19 243.098L282.15 170.866C283.797 146.879 315.846 140.067 327.107 161.31L361.018 225.279C367.564 237.628 382.728 242.555 395.282 236.412L460.316 204.592C481.913 194.025 503.837 218.375 491.071 238.748L452.627 300.1C445.205 311.944 448.52 327.539 460.117 335.34L520.192 375.752C540.141 389.172 530.016 420.333 505.989 419.464L433.634 416.846C419.667 416.341 407.818 427.01 406.861 440.953L401.901 513.185C400.254 537.172 368.204 543.984 356.944 522.741L323.033 458.771C316.487 446.423 301.323 441.495 288.769 447.638L223.734 479.459C202.138 490.026 180.214 465.677 192.98 445.303L231.424 383.951C238.846 372.107 235.531 356.511 223.934 348.71L163.859 308.299Z" stroke="white" stroke-width="2"/>
<path opacity="0.206897" d="M169.056 300.244C149.837 285.799 161.578 255.21 185.527 257.336L255.279 263.526C269.2 264.761 281.592 254.728 283.278 240.854L291.724 171.339C294.625 147.471 326.986 142.346 337.12 164.149L366.635 227.651C372.526 240.325 387.41 246.039 400.269 240.562L464.694 213.12C486.814 203.698 507.434 229.161 493.619 248.839L453.381 306.15C445.35 317.589 447.845 333.336 459.017 341.734L514.995 383.807C534.215 398.252 522.473 428.84 498.524 426.715L428.772 420.525C414.85 419.289 402.46 429.323 400.774 443.197L392.327 512.712C389.427 536.579 357.065 541.705 346.931 519.903L317.417 456.4C311.526 443.725 296.641 438.012 283.782 443.489L219.357 470.931C197.237 480.353 176.618 454.889 190.433 435.212L230.671 377.9C238.701 366.462 236.206 350.714 225.034 342.317L169.056 300.244Z" stroke="white" stroke-width="2"/>
<path opacity="0.241379" d="M174.599 292.638C156.161 277.207 169.488 247.274 193.293 250.65L260.273 260.149C274.111 262.111 287.01 252.74 289.42 238.973L301.083 172.336C305.229 148.653 337.814 145.228 346.793 167.532L372.056 230.287C377.276 243.252 391.842 249.738 404.969 244.941L468.51 221.724C491.093 213.472 510.352 239.98 495.526 258.907L453.809 312.163C445.19 323.166 446.858 339.023 457.576 347.993L509.453 391.413C527.89 406.844 514.563 436.777 490.759 433.401L423.779 423.902C409.941 421.939 397.041 431.311 394.631 445.078L382.968 511.715C378.823 535.398 346.237 538.823 337.259 516.52L311.995 453.764C306.776 440.798 292.21 434.314 279.083 439.11L215.541 462.327C192.959 470.579 173.7 444.072 188.526 425.144L230.242 371.887C238.861 360.884 237.194 345.027 226.476 336.057L174.599 292.638Z" stroke="white" stroke-width="2"/>
<path opacity="0.275862" d="M180.455 285.494C162.851 269.119 177.726 239.924 201.321 244.542L265.38 257.077C279.097 259.761 292.468 251.078 295.595 237.455L310.199 173.836C315.578 150.403 348.298 148.688 356.098 171.431L377.271 233.174C381.805 246.395 396.012 253.634 409.372 249.531L471.769 230.368C494.753 223.31 512.598 250.789 496.802 268.915L453.917 318.124C444.734 328.661 445.569 344.583 455.802 354.102L503.596 398.558C521.201 414.934 506.325 444.128 482.73 439.511L418.671 426.976C404.955 424.291 391.584 432.975 388.456 446.597L373.852 510.216C368.473 533.65 335.753 535.364 327.954 512.622L306.781 450.878C302.247 437.657 288.04 430.419 274.679 434.522L212.282 453.684C189.299 460.742 171.454 433.263 187.25 415.138L230.135 365.928C239.317 355.391 238.483 339.47 228.249 329.951L180.455 285.494Z" stroke="white" stroke-width="2"/>
<path opacity="0.310345" d="M186.592 278.822C169.869 261.548 186.251 233.173 209.573 239.018L270.583 254.31C284.14 257.709 297.948 249.737 301.784 236.298L319.044 175.814C325.643 152.694 358.408 152.694 365.006 175.814L382.267 236.297C386.103 249.737 399.911 257.709 413.468 254.311L474.478 239.018C497.8 233.172 514.182 261.548 497.459 278.822L453.71 324.012C443.988 334.054 443.989 349.997 453.71 360.039L497.459 405.23C514.182 422.504 497.8 450.879 474.479 445.033L413.468 429.74C399.911 426.341 386.103 434.314 382.267 447.754L365.006 508.237C358.408 531.357 325.643 531.357 319.045 508.237L301.783 447.754C297.948 434.314 284.14 426.342 270.583 429.74L209.572 445.033C186.251 450.878 169.869 422.503 186.591 405.229L230.342 360.039C240.063 349.998 240.063 334.053 230.341 324.011L186.592 278.822Z" stroke="white" stroke-width="2"/>
<path opacity="0.344828" d="M192.977 272.633C177.18 254.507 195.025 227.028 218.009 234.087L275.864 251.854C289.224 255.957 303.43 248.719 307.964 235.498L327.596 178.248C335.395 155.506 368.115 157.221 373.494 180.654L387.035 239.642C390.162 253.264 403.534 261.948 417.25 259.264L476.646 247.641C500.241 243.024 515.117 272.218 497.512 288.593L453.197 329.813C442.963 339.333 442.129 355.254 451.312 365.791L491.075 411.418C506.871 429.543 489.026 457.022 466.042 449.964L408.187 432.197C394.827 428.094 380.621 435.332 376.087 448.552L356.455 505.802C348.656 528.545 315.936 526.83 310.557 503.397L297.016 444.409C293.889 430.787 280.517 422.103 266.801 424.787L207.405 436.409C183.81 441.026 168.935 411.833 186.539 395.458L230.854 354.237C241.088 344.718 241.922 328.796 232.74 318.26L192.977 272.633Z" stroke="white" stroke-width="2"/>
<path opacity="0.37931" d="M199.575 266.935C184.749 248.007 204.007 221.5 226.59 229.751L281.204 249.707C294.332 254.504 308.897 248.018 314.117 235.053L335.831 181.114C344.809 158.81 377.395 162.235 381.54 185.918L391.566 243.193C393.976 256.961 406.874 266.332 420.713 264.37L478.282 256.205C502.086 252.829 515.413 282.761 496.976 298.193L452.387 335.512C441.669 344.482 440.003 360.34 448.621 371.343L484.477 417.117C499.303 436.044 480.044 462.552 457.462 454.3L402.848 434.345C389.72 429.548 375.153 436.033 369.934 448.998L348.22 502.937C339.242 525.241 306.655 521.816 302.51 498.134L292.486 440.858C290.076 427.091 277.177 417.72 263.339 419.682L205.769 427.847C181.964 431.222 168.638 401.29 187.075 385.858L231.664 348.539C242.382 339.569 244.049 323.712 235.43 312.709L199.575 266.935Z" stroke="white" stroke-width="2"/>
<path opacity="0.413793" d="M206.353 261.732C192.538 242.054 213.158 216.59 235.278 226.012L286.586 247.868C299.445 253.345 314.33 247.631 320.221 234.956L343.727 184.383C353.86 162.58 386.222 167.705 389.122 191.573L395.849 246.935C397.535 260.809 409.926 270.844 423.848 269.608L479.399 264.678C503.348 262.552 515.09 293.141 495.87 307.586L451.289 341.093C440.116 349.49 437.622 365.238 445.653 376.677L477.698 422.32C491.513 441.998 470.893 467.462 448.773 458.04L397.465 436.184C384.606 430.707 369.722 436.421 363.831 449.095L340.324 499.669C330.191 521.472 297.829 516.347 294.929 492.479L288.202 437.117C286.516 423.243 274.125 413.208 260.203 414.444L204.652 419.374C180.703 421.5 168.961 390.911 188.181 376.466L232.763 342.958C243.935 334.561 246.429 318.813 238.398 307.375L206.353 261.732Z" stroke="white" stroke-width="2"/>
<path opacity="0.448276" d="M213.279 257.025C200.512 236.652 222.437 212.302 244.033 222.869L291.994 246.336C304.548 252.478 319.712 247.551 326.258 235.202L351.265 188.027C362.526 166.784 394.575 173.597 396.222 197.583L399.879 250.851C400.837 264.795 412.686 275.463 426.653 274.958L480.012 273.028C504.039 272.159 514.164 303.32 494.215 316.74L449.912 346.541C438.316 354.342 435 369.938 442.422 381.782L470.773 427.026C483.539 447.399 461.615 471.749 440.019 461.182L392.058 437.716C379.504 431.573 364.34 436.5 357.794 448.849L332.787 496.024C321.526 517.267 289.477 510.454 287.83 486.468L284.171 433.2C283.214 419.256 271.365 408.588 257.398 409.093L204.04 411.023C180.013 411.892 169.887 380.731 189.837 367.311L234.139 337.51C245.736 329.709 249.052 314.113 241.63 302.269L213.279 257.025Z" stroke="white" stroke-width="2"/>
<path opacity="0.482759" d="M220.318 252.817C208.636 231.804 231.804 208.635 252.817 220.318L297.407 245.108C309.623 251.899 325.024 247.772 332.207 235.783L358.428 192.019C370.785 171.395 402.434 179.875 402.823 203.915L403.65 254.926C403.876 268.9 415.15 280.174 429.125 280.401L480.136 281.227C504.175 281.617 512.656 313.265 492.032 325.622L448.268 351.843C436.279 359.027 432.152 374.428 438.943 386.644L463.733 431.234C475.415 452.248 452.248 475.415 431.234 463.733L386.644 438.943C374.428 432.152 359.028 436.279 351.844 448.268L325.622 492.031C313.265 512.655 281.617 504.175 281.227 480.136L280.401 429.125C280.175 415.15 268.901 403.876 254.926 403.649L203.915 402.823C179.876 402.434 171.395 370.786 192.019 358.428L235.783 332.207C247.772 325.023 251.899 309.623 245.108 297.407L220.318 252.817Z" stroke="white" stroke-width="2"/>
<path opacity="0.517241" d="M227.439 249.107C216.872 227.511 241.221 205.587 261.594 218.354L302.812 244.181C314.655 251.602 330.251 248.287 338.052 236.69L365.202 196.331C378.621 176.382 409.783 186.507 408.913 210.534L407.155 259.143C406.65 273.111 417.318 284.959 431.262 285.917L479.789 289.249C503.775 290.896 510.588 322.945 489.345 334.206L446.369 356.988C434.02 363.534 429.093 378.698 435.236 391.253L456.613 434.944C467.18 456.54 442.831 478.464 422.457 465.698L381.24 439.87C369.396 432.449 353.801 435.764 345.999 447.361L318.85 487.721C305.43 507.67 274.269 497.545 275.138 473.518L276.897 424.908C277.402 410.941 266.733 399.092 252.79 398.134L204.263 394.802C180.276 393.155 173.464 361.106 194.707 349.845L237.683 327.063C250.032 320.517 254.959 305.353 248.816 292.799L227.439 249.107Z" stroke="white" stroke-width="2"/>
<path opacity="0.551724" d="M234.607 245.891C225.185 223.772 250.648 203.151 270.326 216.967L308.191 243.551C319.63 251.582 335.378 249.088 343.775 237.915L371.572 200.931C386.017 181.711 416.606 193.453 414.48 217.402L410.39 263.487C409.154 277.408 419.188 289.799 433.062 291.485L478.99 297.066C502.857 299.966 507.983 332.327 486.18 342.461L444.225 361.961C431.551 367.852 425.836 382.737 431.314 395.596L449.445 438.16C458.867 460.28 433.403 480.9 413.726 467.085L375.861 440.5C364.422 432.469 348.675 434.964 340.277 446.136L312.481 483.12C298.036 502.34 267.446 490.598 269.571 466.65L273.662 420.565C274.897 406.643 264.863 394.253 250.989 392.567L205.061 386.986C181.194 384.086 176.069 351.724 197.872 341.59L239.827 322.09C252.501 316.199 258.215 301.314 252.738 288.456L234.607 245.891Z" stroke="white" stroke-width="2"/>
<path opacity="0.586207" d="M241.792 243.163C233.541 220.581 260.049 201.322 278.976 216.148L313.527 243.212C324.53 251.831 340.387 250.164 349.357 239.446L377.527 205.79C392.958 187.352 422.89 200.679 419.514 224.484L413.351 267.938C411.389 281.776 420.761 294.675 434.528 297.085L477.76 304.652C501.442 308.797 504.867 341.383 482.564 350.361L441.85 366.752C428.885 371.971 422.399 386.537 427.196 399.665L442.259 440.888C450.511 463.47 424.003 482.729 405.075 467.903L370.525 440.839C359.522 432.22 343.665 433.887 334.694 444.605L306.525 478.261C291.093 496.699 261.161 483.372 264.537 459.567L270.7 416.113C272.663 402.275 263.29 389.376 249.523 386.966L206.292 379.399C182.609 375.254 179.184 342.668 201.487 333.69L242.201 317.299C255.167 312.08 261.652 297.514 256.855 284.386L241.792 243.163Z" stroke="white" stroke-width="2"/>
<path opacity="0.62069" d="M248.963 240.917C241.905 217.933 269.385 200.088 287.51 215.884L318.805 243.159C329.342 252.341 345.265 251.507 354.784 241.273L383.058 210.877C399.433 193.273 428.627 208.148 424.01 231.743L416.037 272.483C413.353 286.199 422.037 299.571 435.659 302.698L476.12 311.986C499.553 317.365 501.268 350.085 478.526 357.884L439.257 371.35C426.036 375.884 418.798 390.091 422.901 403.451L435.089 443.135C442.147 466.119 414.667 483.964 396.542 468.168L365.245 440.893C354.709 431.711 338.787 432.545 329.268 442.778L300.994 473.175C284.619 490.779 255.425 475.904 260.042 452.309L268.013 411.569C270.697 397.852 262.014 384.48 248.391 381.353L207.932 372.066C184.498 366.687 182.783 333.966 205.526 326.167L244.794 312.701C258.015 308.167 265.253 293.961 261.15 280.6L248.963 240.917Z" stroke="white" stroke-width="2"/>
<path opacity="0.655172" d="M256.09 239.141C250.244 215.82 278.619 199.437 295.893 216.161L324.011 243.382C334.053 253.104 349.998 253.104 360.039 243.383L388.158 216.16C405.432 199.437 433.807 215.819 427.962 239.14L418.446 277.104C415.048 290.661 423.02 304.469 436.459 308.304L474.094 319.045C497.214 325.643 497.214 358.408 474.095 365.006L436.46 375.747C423.02 379.582 415.047 393.39 418.446 406.948L427.961 444.91C433.807 468.231 405.432 484.613 388.158 467.89L360.04 440.668C349.998 430.947 334.054 430.947 324.012 440.669L295.893 467.891C278.619 484.614 250.244 468.231 256.089 444.91L265.605 406.947C269.003 393.39 261.031 379.582 247.592 375.746L209.957 365.006C186.837 358.408 186.837 325.643 209.956 319.044L247.591 308.305C261.032 304.469 269.003 290.66 265.605 277.103L256.09 239.141Z" stroke="white" stroke-width="2"/>
<path opacity="0.689655" d="M263.142 237.82C258.525 214.225 287.719 199.35 304.094 216.955L329.131 243.871C338.651 254.105 354.572 254.939 365.109 245.757L392.823 221.604C410.948 205.808 438.427 223.653 431.369 246.637L420.577 281.778C416.474 295.139 423.713 309.345 436.933 313.879L471.706 325.803C494.449 333.602 492.734 366.322 469.301 371.701L433.472 379.926C419.85 383.053 411.166 396.425 413.85 410.141L420.909 446.218C425.527 469.814 396.333 484.688 379.958 467.084L354.92 440.168C345.401 429.934 329.48 429.099 318.943 438.282L291.229 462.434C273.103 478.23 245.624 460.385 252.682 437.401L263.474 402.261C267.577 388.9 260.339 374.694 247.118 370.16L212.345 358.235C189.602 350.436 191.317 317.716 214.75 312.337L250.58 304.112C264.202 300.985 272.885 287.614 270.201 273.897L263.142 237.82Z" stroke="white" stroke-width="2"/>
<path opacity="0.724138" d="M270.092 236.954C266.716 213.15 296.649 199.823 312.08 218.26L334.149 244.628C343.12 255.346 358.976 257.012 369.979 248.394L397.048 227.19C415.976 212.364 442.483 231.623 434.232 254.206L422.431 286.502C417.634 299.629 424.119 314.196 437.085 319.415L468.982 332.256C491.285 341.234 487.86 373.82 464.178 377.965L430.307 383.894C416.54 386.304 407.169 399.202 409.131 413.04L413.96 447.085C417.335 470.89 387.403 484.216 371.971 465.78L349.903 439.411C340.932 428.693 325.075 427.026 314.072 435.645L287.004 456.848C268.076 471.674 241.568 452.416 249.819 429.833L261.62 397.537C266.417 384.409 259.932 369.843 246.966 364.623L215.069 351.783C192.766 342.804 196.191 310.218 219.874 306.073L253.744 300.145C267.511 297.735 276.883 284.836 274.92 270.998L270.092 236.954Z" stroke="white" stroke-width="2"/>
<path opacity="0.758621" d="M276.913 236.521C274.787 212.572 305.377 200.83 319.822 220.05L339.053 245.637C347.45 256.81 363.197 259.304 374.636 251.273L400.834 232.881C420.511 219.066 445.974 239.685 436.552 261.805L424.009 291.253C418.532 304.112 424.246 318.998 436.92 324.889L465.947 338.38C487.749 348.513 482.624 380.875 458.757 383.775L426.981 387.636C413.107 389.322 403.073 401.713 404.309 415.634L407.139 447.518C409.264 471.467 378.675 483.209 364.229 463.989L344.998 438.402C336.601 427.23 320.854 424.735 309.415 432.765L283.217 451.158C263.54 464.973 238.077 444.354 247.499 422.234L260.042 392.786C265.52 379.927 259.806 365.041 247.131 359.15L218.105 345.659C196.302 335.526 201.427 303.164 225.294 300.264L257.07 296.402C270.944 294.716 280.978 282.326 279.742 268.404L276.913 236.521Z" stroke="white" stroke-width="2"/>
<path opacity="0.793103" d="M283.579 236.505C282.71 212.478 313.871 202.353 327.29 222.302L343.83 246.889C351.632 258.486 367.227 261.801 379.07 254.38L404.181 238.645C424.554 225.879 448.903 247.803 438.337 269.399L425.313 296.017C419.17 308.571 424.097 323.734 436.446 330.281L462.628 344.159C483.87 355.42 477.058 387.469 453.072 389.116L423.509 391.147C409.565 392.105 398.897 403.953 399.402 417.921L400.473 447.534C401.342 471.561 370.181 481.686 356.761 461.737L340.222 437.149C332.421 425.552 316.825 422.238 304.981 429.659L279.871 445.393C259.498 458.159 235.148 436.235 245.714 414.639L258.739 388.021C264.881 375.467 259.954 360.303 247.606 353.757L221.423 339.879C200.181 328.618 206.994 296.568 230.98 294.921L260.543 292.892C274.487 291.934 285.156 280.085 284.65 266.118L283.579 236.505Z" stroke="white" stroke-width="2"/>
<path opacity="0.827586" d="M290.065 236.888C290.454 212.849 322.103 204.368 334.46 224.993L348.469 248.374C355.652 260.363 371.053 264.489 383.268 257.698L407.092 244.454C428.105 232.772 451.274 255.94 439.591 276.954L426.347 300.776C419.555 312.992 423.682 328.393 435.671 335.576L459.053 349.585C479.677 361.942 471.197 393.59 447.157 393.98L419.903 394.422C405.929 394.649 394.655 405.922 394.429 419.897L393.987 447.15C393.597 471.19 361.949 479.67 349.592 459.046L335.583 435.665C328.399 423.676 312.999 419.549 300.783 426.34L276.96 439.584C255.946 451.267 232.778 428.098 244.46 407.085L257.705 383.262C264.496 371.046 260.369 355.646 248.38 348.462L224.999 334.453C204.375 322.096 212.855 290.448 236.894 290.058L264.148 289.616C278.123 289.39 289.396 278.116 289.623 264.141L290.065 236.888Z" stroke="white" stroke-width="2"/>
<path opacity="0.862069" d="M296.348 237.653C297.995 213.667 330.044 206.855 341.305 228.097L352.958 250.08C359.504 262.428 374.667 267.355 387.222 261.213L409.571 250.278C431.168 239.712 453.092 264.061 440.325 284.434L427.114 305.518C419.693 317.361 423.008 332.957 434.605 340.758L455.249 354.645C475.198 368.064 465.073 399.226 441.046 398.357L416.181 397.457C402.214 396.952 390.366 407.62 389.408 421.564L387.704 446.387C386.056 470.373 354.008 477.185 342.747 455.942L331.094 433.959C324.548 421.61 309.383 416.683 296.829 422.826L274.48 433.761C252.884 444.328 230.96 419.979 243.727 399.605L256.937 378.522C264.359 366.679 261.044 351.083 249.447 343.282L228.803 329.395C208.853 315.975 218.978 284.814 243.005 285.683L267.869 286.582C281.837 287.087 293.686 276.419 294.644 262.475L296.348 237.653Z" stroke="white" stroke-width="2"/>
<path opacity="0.896552" d="M302.406 238.778C305.306 214.91 337.669 209.785 347.802 231.588L357.288 251.996C363.178 264.67 378.064 270.384 390.922 264.907L411.627 256.088C433.747 246.666 454.366 272.129 440.551 291.806L427.62 310.224C419.589 321.663 422.083 337.411 433.256 345.809L451.246 359.329C470.465 373.774 458.723 404.363 434.775 402.237L412.358 400.248C398.437 399.012 386.045 409.047 384.36 422.922L381.645 445.261C378.745 469.128 346.383 474.254 336.249 452.451L326.764 432.044C320.873 419.37 305.988 413.655 293.13 419.132L272.424 427.951C250.305 437.373 229.685 411.91 243.5 392.233L256.432 373.815C264.463 362.376 261.968 346.627 250.796 338.23L232.806 324.71C213.586 310.265 225.328 279.676 249.277 281.801L271.694 283.791C285.615 285.026 298.006 274.992 299.692 261.118L302.406 238.778Z" stroke="white" stroke-width="2"/>
<path opacity="0.931035" d="M308.221 240.241C312.366 216.558 344.952 213.133 353.931 235.437L361.447 254.109C366.667 267.074 381.233 273.559 394.361 268.762L413.267 261.855C435.849 253.604 455.108 280.111 440.282 299.038L427.869 314.884C419.25 325.886 420.917 341.743 431.635 350.714L447.071 363.633C465.508 379.064 452.181 408.996 428.377 405.621L408.448 402.795C394.61 400.832 381.71 410.204 379.301 423.971L375.831 443.798C371.685 467.481 339.099 470.906 330.121 448.602L322.604 429.93C317.385 416.965 302.819 410.48 289.691 415.276L270.785 422.184C248.203 430.435 228.944 403.928 243.77 385.001L256.181 369.154C264.8 358.152 263.134 342.295 252.416 333.324L236.981 320.406C218.543 304.975 231.87 275.042 255.675 278.418L275.604 281.244C289.442 283.207 302.341 273.835 304.751 260.068L308.221 240.241Z" stroke="white" stroke-width="2"/>
<path opacity="0.965517" d="M313.773 242.021C319.152 218.588 351.872 216.873 359.671 239.616L365.43 256.408C369.963 269.629 384.17 276.867 397.531 272.764L414.501 267.552C437.484 260.494 455.329 287.973 439.533 306.098L427.87 319.482C418.687 330.019 419.522 345.941 429.755 355.46L442.754 367.551C460.358 383.926 445.483 413.12 421.888 408.503L404.466 405.094C390.749 402.41 377.377 411.093 374.25 424.716L370.278 442.019C364.899 465.451 332.18 467.166 324.38 444.424L318.621 427.631C314.088 414.41 299.882 407.172 286.521 411.275L269.551 416.487C246.568 423.545 228.722 396.066 244.518 377.94L256.182 364.557C265.365 354.02 264.53 338.098 254.297 328.579L241.297 316.488C223.694 300.112 238.569 270.918 262.164 275.536L279.586 278.945C293.303 281.629 306.674 272.945 309.801 259.323L313.773 242.021Z" stroke="white" stroke-width="2"/>
<path d="M319.045 244.094C325.643 220.974 358.408 220.974 365.006 244.094L369.226 258.879C373.062 272.319 386.87 280.292 400.427 276.894L415.341 273.154C438.662 267.309 455.045 295.684 438.323 312.958L427.627 324.006C417.906 334.048 417.906 349.991 427.627 360.033L438.323 371.08C455.046 388.354 438.663 416.73 415.341 410.884L400.427 407.146C386.87 403.747 373.062 411.719 369.226 425.159L365.006 439.945C358.408 463.065 325.643 463.065 319.045 439.945L314.826 425.159C310.99 411.719 297.182 403.747 283.624 407.146L268.709 410.884C245.388 416.729 229.006 388.354 245.729 371.08L256.424 360.033C266.146 349.992 266.146 334.048 256.424 324.006L245.729 312.958C229.006 295.684 245.388 267.309 268.709 273.154L283.624 276.894C297.182 280.292 310.99 272.319 314.826 258.879L319.045 244.094Z" stroke="white" stroke-width="2"/>
</svg>
